<svg xmlns="http://www.w3.org/2000/svg" width="24" height="24" viewBox="0 0 24 24" fill="none"><path fill-rule="evenodd" clip-rule="evenodd" d="M16.0233 16.9407C15.8738 16.5077 16.2353 15.8251 16.373 15.6498C16.6209 15.3346 16.9283 15.1114 17.4257 15.0423C18.393 14.9078 19.1829 15.579 19.3003 16.3981C19.4444 17.4044 18.6925 18.2331 17.8994 18.2894C17.4061 18.3244 16.9568 18.2508 16.6578 17.9663C16.2234 17.5531 16.2367 17.5589 16.0233 16.9407ZM21.9999 10.6712V10.9047C21.9978 11.2526 21.975 11.3927 21.7733 11.6556C21.5971 11.8853 21.3316 12.0004 20.9257 11.9993C20.44 11.9981 20.1912 12.0525 19.8507 11.8829C19.6225 11.7692 19.3817 11.4986 19.3445 11.1967C19.2207 10.1917 20.1301 10.0583 20.2915 9.82226C20.3631 9.71763 20.3202 7.77566 20.3202 7.46808L16.6483 12.6634H21.3358C21.4449 12.6634 21.5625 12.6586 21.6701 12.6611C21.9047 12.6665 21.7657 12.738 21.9217 12.7415C21.925 12.8881 21.9753 12.7664 21.9991 12.9376L21.9999 16.2324V16.7147C21.999 16.7252 21.9978 16.7344 21.9964 16.7419C21.9664 16.8925 21.9249 16.7798 21.9218 16.9212C21.7068 16.926 22.0423 17.001 21.4726 16.9994C20.72 16.9972 20.836 17.0974 20.496 16.4134C20.4093 16.2389 19.8146 15.1036 19.8124 15.0071H19.3436C19.3943 15.147 19.8066 15.4573 19.9538 16.1547C20.0658 16.685 19.9905 17.2606 19.7999 17.6509C19.4093 18.4511 18.7456 18.9421 17.6584 19.0203C16.7435 19.0861 15.7954 18.2922 15.538 17.6408C15.2106 16.8123 15.2421 16.3093 15.6257 15.5274C15.7178 15.3397 15.9449 15.116 15.9843 15.0071H15.5546C15.5379 15.0534 14.7615 16.6328 14.6493 16.8167C14.609 16.8828 14.471 16.9741 14.4609 16.9993H8.64061C8.64061 17.4807 8.17951 18.1841 7.89143 18.3985C7.63757 18.5875 7.56767 18.6848 7.23625 18.8175C6.94013 18.9362 6.75327 18.9916 6.33595 18.9915C5.56481 18.9912 5.20684 18.7485 4.76589 18.4131C4.48898 18.2024 4.03128 17.4829 4.03128 16.9993H2.19537L2.07819 16.9211C2.07491 16.7745 2.02466 16.8962 2.00086 16.725L2.00003 16.7185V14.9485V14.038C2.01792 13.7388 2.08086 13.5018 2.27376 13.1715C2.5411 12.7137 2.97732 12.5228 3.55556 12.4025C4.13529 12.2819 4.68668 12.1798 5.26624 12.0624C5.50969 12.0131 5.45773 11.9993 5.54806 11.8169L6.05583 10.8012C6.28792 10.3384 6.51113 9.89858 6.73975 9.43437C7.26175 8.37468 8.52033 8.63996 10.0469 8.63996C9.82706 8.03267 10.2788 7.69859 10.2813 7.5853C10.3645 7.58342 10.4455 7.47801 10.5537 7.42805C10.9382 7.2506 11.2787 7.31188 11.7071 7.31188C12.6852 7.31188 13.9899 7.06606 13.9937 8.40691C13.9948 8.82393 13.568 9.30407 13.211 9.30407L14.2656 11.3744C14.269 11.2241 16.5341 8.63699 16.8671 8.17505C17.0095 7.97734 17.2587 7.74438 17.3907 7.54628L18.4359 6.28687C18.7663 5.96346 19.1386 5.26007 19.5584 5.08516C20.1804 4.826 20.8639 5.19088 20.9735 5.74078C21.08 6.27467 21.0234 7.37159 21.0234 8.01505L21.0236 9.7535C21.0253 10.0323 20.948 10.1217 20.9453 10.2416C20.8826 10.243 20.4183 10.5799 20.3282 10.64C20.1445 10.7625 19.851 10.9553 20.103 11.2206C20.2343 11.359 20.705 11.3814 20.9937 11.3251C21.345 11.2565 21.336 11.0989 21.336 10.6713H22L21.9999 10.6712ZM7.93745 16.9798C7.83155 17.2866 7.89196 17.3044 7.71175 17.5744C7.57602 17.7777 7.47367 17.8441 7.31249 17.9954C7.02945 18.2612 6.51616 18.3345 6.02635 18.2854C5.31063 18.2136 4.47559 17.3039 4.71323 16.3337C4.91868 15.4947 5.5904 14.9126 6.64484 15.0498C7.35448 15.1421 8.24787 16.0804 7.93745 16.9798V16.9798ZM4.00259 16.327L2.66405 16.3352V15.6712H4.18747L4.00259 16.327V16.327ZM2.66405 14.3431H3.99217V14.9681H2.66405V14.3431ZM14.1093 16.3352H11.6875V13.3275H21.3359V16.3352H21.2187C21.1583 16.1683 20.36 14.5783 20.2811 14.4798C20.0773 14.2254 19.5284 14.304 19.0703 14.304H16.2773C15.8164 14.304 15.2515 14.2244 15.0469 14.4798C14.9681 14.5783 14.1698 16.1683 14.1094 16.3352H14.1093ZM10.9843 9.34308V16.3352H8.64061C8.64061 15.9043 8.33474 15.4246 8.13419 15.1816C7.88439 14.8789 7.57677 14.6326 7.18057 14.475C6.7517 14.3045 6.26491 14.2951 5.7745 14.3871C5.56258 14.4268 5.37038 14.5326 5.18974 14.6226C5.02899 14.7027 4.79988 14.9302 4.69538 14.9681C4.69538 14.4432 4.81357 13.7739 4.39297 13.6689C4.12864 13.6029 3.20017 13.6399 2.82038 13.6399C2.82401 13.4775 3.06138 13.3132 3.18255 13.2404C3.36704 13.1294 3.53785 13.1071 3.78323 13.0599C4.22457 12.9748 4.65431 12.8929 5.08598 12.8001C5.73364 12.6609 5.8262 12.7824 6.09485 12.2465C6.2727 11.8918 6.43821 11.56 6.6161 11.2053C6.7835 10.8715 6.9571 10.5244 7.13044 10.1766C7.31196 9.81246 7.41865 9.42917 7.86584 9.34956C8.42178 9.25062 10.2912 9.34308 10.9844 9.34308H10.9843ZM11.6875 11.2181L12.1897 12.6652L11.6875 12.6634V11.2181ZM11.8105 9.34116L12.4687 9.34313L14.1093 12.6634H12.8984L11.8105 9.34116H11.8105ZM10.75 8.09312C10.906 8.08967 10.767 8.01815 11.0016 8.01273C11.1092 8.01024 11.2267 8.015 11.3359 8.015C11.7787 8.015 12.2214 8.015 12.6641 8.015C12.7732 8.015 12.8908 8.01024 12.9984 8.01273C13.233 8.0182 13.094 8.08967 13.25 8.09312C13.2538 8.26655 13.4034 8.21914 13.2856 8.4598C13.2234 8.58708 13.1777 8.64079 12.9784 8.6418H11.0216C10.8223 8.64079 10.7767 8.58704 10.7143 8.4598C10.5965 8.21909 10.7461 8.26655 10.75 8.09312V8.09312ZM15.8281 12.6634H14.8906C14.8099 12.5021 14.6118 12.1544 14.5781 11.9993C14.6751 11.9642 16.9383 9.14092 17.2536 8.7959C17.7075 8.2991 18.1388 7.70852 18.5916 7.18473C18.8154 6.9257 19.02 6.62074 19.2458 6.37409C19.4013 6.20425 19.751 5.65422 20.0247 5.67408C20.2024 5.68693 20.3351 5.87467 20.323 6.1008C20.3125 6.29803 20.1536 6.45877 20.0623 6.58514C19.8622 6.86184 19.6444 7.16938 19.4608 7.44848C18.9136 8.28011 18.1925 9.22031 17.6487 10.0504C17.3397 10.522 15.8923 12.4861 15.8281 12.6634L15.8281 12.6634Z" fill="#333333"></path><path fill-rule="evenodd" clip-rule="evenodd" d="M8.5381 10.6788L9.65623 10.6715V11.9996H7.89845L8.53815 10.6788L8.5381 10.6788ZM8.32811 9.98784C8.20594 10.0654 8.16618 9.89944 7.94416 10.3461L7.18203 11.8691C6.97675 12.2809 6.76951 12.6657 7.52722 12.6636C8.035 12.6623 8.54291 12.6636 9.05069 12.6636C9.48613 12.6636 10.2253 12.7873 10.3226 12.4316C10.4032 12.1369 10.3593 11.3374 10.3593 10.9449C10.3593 10.3663 10.4386 9.96799 9.83347 9.9668C9.60129 9.96637 8.43505 9.91996 8.32802 9.98789L8.32811 9.98784Z" fill="#333333"></path><path fill-rule="evenodd" clip-rule="evenodd" d="M17.4297 16.4137C17.5897 16.4101 17.6857 16.2589 17.8965 16.4352C18.0969 16.6028 17.9003 16.842 17.8985 16.9216C17.7109 16.9258 17.6676 17.0922 17.4464 16.8853C17.2146 16.6686 17.427 16.534 17.4297 16.4138L17.4297 16.4137ZM16.9219 15.945C16.9196 16.0511 16.2806 16.6841 16.9608 17.3709C17.1262 17.5379 17.3282 17.6653 17.6641 17.6652C18.1588 17.665 18.2787 17.3931 18.4063 17.3902C18.4085 17.2931 19.0397 16.6813 18.382 15.9497C18.2257 15.7757 17.9957 15.6709 17.6641 15.6709C17.1364 15.6709 17.052 15.942 16.9219 15.9449L16.9219 15.945Z" fill="#333333"></path><path fill-rule="evenodd" clip-rule="evenodd" d="M6.57036 16.4137C6.57303 16.5339 6.78547 16.6685 6.55365 16.8853C6.33246 17.0921 6.28911 16.9257 6.10164 16.9215C6.09985 16.8419 5.90315 16.6028 6.10361 16.4351C6.31443 16.2589 6.41036 16.4101 6.5704 16.4137L6.57036 16.4137ZM5.59377 17.3902C5.72044 17.393 5.84615 17.665 6.31583 17.6652C6.91061 17.6655 7.33406 17.1907 7.35374 16.6863C7.36704 16.3445 7.07967 16.0133 7.07814 15.945C6.94792 15.9421 6.85756 15.6687 6.35581 15.6709C6.00747 15.6724 5.78378 15.7654 5.61805 15.9497C4.96015 16.6815 5.59163 17.2931 5.59377 17.3903V17.3902Z" fill="#333333"></path><path fill-rule="evenodd" clip-rule="evenodd" d="M8.99225 13.992H10.3594V13.3279H8.99225V13.992Z" fill="#333333"></path></svg>