<svg xmlns="http://www.w3.org/2000/svg" width="76" height="76" viewBox="0 0 76 76" fill="none"><rect opacity="0.1" width="76" height="76" rx="38" fill="#AF52DE"></rect><path d="M26 29.2144V48.4504L33.5975 45.1954L42.5975 49.6954L50 46.5199V27.2854L51.9545 26.4484C52.0686 26.3995 52.1931 26.3797 52.3168 26.3907C52.4405 26.4018 52.5595 26.4434 52.6631 26.5118C52.7668 26.5802 52.8518 26.6732 52.9106 26.7826C52.9694 26.892 53.0001 27.0142 53 27.1384V48.4999L42.5 52.9999L33.5 48.4999L24.0455 52.5514C23.9314 52.6003 23.8069 52.6201 23.6832 52.6091C23.5595 52.598 23.4405 52.5564 23.3369 52.488C23.2332 52.4196 23.1482 52.3266 23.0894 52.2172C23.0306 52.1078 22.9999 51.9856 23 51.8614V30.4999L26 29.2144ZM44.3645 36.8644L38 43.2274L31.6355 36.8644C30.377 35.6057 29.52 34.002 29.1728 32.2562C28.8257 30.5104 29.004 28.7009 29.6852 27.0565C30.3665 25.412 31.52 24.0065 33 23.0176C34.48 22.0288 36.22 21.501 38 21.501C39.78 21.501 41.52 22.0288 43 23.0176C44.48 24.0065 45.6335 25.412 46.3148 27.0565C46.996 28.7009 47.1743 30.5104 46.8272 32.2562C46.48 34.002 45.623 35.6057 44.3645 36.8644ZM38 38.9854L42.242 34.7419C43.0813 33.9029 43.6529 32.8338 43.8846 31.6698C44.1162 30.5059 43.9975 29.2994 43.5435 28.2029C43.0894 27.1065 42.3203 26.1693 41.3336 25.5099C40.3469 24.8506 39.1868 24.4986 38 24.4986C36.8132 24.4986 35.6531 24.8506 34.6664 25.5099C33.6797 26.1693 32.9106 27.1065 32.4565 28.2029C32.0025 29.2994 31.8838 30.5059 32.1154 31.6698C32.3471 32.8338 32.9187 33.9029 33.758 34.7419L38 38.9854Z" fill="#AF52DE"></path></svg>