<svg xmlns="http://www.w3.org/2000/svg" width="76" height="76" viewBox="0 0 76 76" fill="none"><rect opacity="0.1" width="76" height="76" rx="38" fill="#40DD7F"></rect><path d="M51.5 26H24.5C22.8431 26 21.5 27.3431 21.5 29V47C21.5 48.6569 22.8431 50 24.5 50H51.5C53.1569 50 54.5 48.6569 54.5 47V29C54.5 27.3431 53.1569 26 51.5 26Z" stroke="#219653" stroke-width="2" stroke-linecap="round" stroke-linejoin="round"></path><path d="M21.5 35H54.5" stroke="#219653" stroke-width="2" stroke-linecap="round" stroke-linejoin="round"></path><path fill-rule="evenodd" clip-rule="evenodd" d="M41.4615 46H40.3415L38.8197 43.851H35.8369V46H34.7169V43.851H33V42.7765H34.7169V41.702H33V40.6275H34.7169V38H35.8369L37.701 40.6275H40.3415V38H41.4615V40.6275H43V41.702H41.4615V42.7765H43V43.851H41.4615V46ZM35.8369 42.7765H38.0588L37.2979 41.702H35.8369V42.7765ZM39.9878 43.851L40.3415 44.3496V43.851H39.9878ZM40.3415 42.7765H39.2255L38.4633 41.702H40.3415V42.7765ZM35.8369 39.639L36.537 40.6275H35.8369V39.639Z" fill="#219653"></path><rect x="42" y="30" width="8" height="2" fill="#219653"></rect></svg>