<svg xmlns="http://www.w3.org/2000/svg" width="76" height="76" viewBox="0 0 76 76" fill="none"><rect opacity="0.1" width="76" height="76" rx="38" fill="#40DD7F"></rect><path fill-rule="evenodd" clip-rule="evenodd" d="M45.0408 46.063C44.7792 45.3052 45.4117 44.1107 45.6528 43.8039C46.0865 43.2523 46.6245 42.8618 47.4949 42.7408C49.1877 42.5054 50.5701 43.68 50.7754 45.1134C51.0277 46.8745 49.7119 48.3247 48.3239 48.4232C47.4607 48.4844 46.6744 48.3556 46.1512 47.8578C45.391 47.1346 45.4142 47.1449 45.0408 46.063ZM55.4997 35.0914V35.4999C55.4961 36.1087 55.4562 36.354 55.1033 36.814C54.7949 37.2161 54.3303 37.4175 53.6199 37.4156C52.77 37.4134 52.3347 37.5087 51.7387 37.2117C51.3394 37.0129 50.9179 36.5393 50.8528 36.011C50.6362 34.2523 52.2277 34.0188 52.5102 33.6057C52.6354 33.4226 52.5603 30.0241 52.5603 29.4859L46.1346 38.5776H54.3376C54.5286 38.5776 54.7343 38.5693 54.9226 38.5736C55.3332 38.5831 55.09 38.7082 55.363 38.7143C55.3688 38.9709 55.4567 38.758 55.4983 39.0576L55.4998 44.8234V45.6675C55.4983 45.6858 55.4962 45.7019 55.4936 45.715C55.4412 45.9786 55.3685 45.7814 55.3631 46.0288C54.9869 46.0372 55.574 46.1685 54.577 46.1656C53.26 46.1619 53.4629 46.3372 52.8679 45.1401C52.7162 44.8349 51.6754 42.848 51.6717 42.6792H50.8514C50.94 42.9241 51.6615 43.467 51.9192 44.6875C52.115 45.6155 51.9833 46.6228 51.6498 47.3058C50.9662 48.7062 49.8048 49.5654 47.9022 49.7022C46.3011 49.8174 44.6419 48.4281 44.1915 47.2882C43.6185 45.8382 43.6736 44.958 44.3449 43.5897C44.5061 43.2612 44.9035 42.8698 44.9725 42.6792H44.2206C44.1912 42.7602 42.8326 45.5241 42.6363 45.8459C42.5656 45.9617 42.3242 46.1215 42.3065 46.1655H32.1211C32.1211 47.0079 31.3141 48.2389 30.81 48.6142C30.3657 48.9448 30.2434 49.1151 29.6634 49.3475C29.1452 49.5551 28.8182 49.652 28.0879 49.6518C26.7384 49.6513 26.1119 49.2266 25.3403 48.6396C24.8557 48.271 24.0547 47.0119 24.0547 46.1655H20.8419L20.6368 46.0288C20.6311 45.7722 20.5431 45.9851 20.5015 45.6855L20.5 45.6741V42.5766V40.9833C20.5313 40.4596 20.6415 40.0449 20.9791 39.4668C21.4469 38.6658 22.2103 38.3316 23.2222 38.1211C24.2367 37.91 25.2017 37.7314 26.2159 37.526C26.6419 37.4397 26.551 37.4156 26.7091 37.0962L27.5977 35.3189C28.0038 34.509 28.3944 33.7393 28.7945 32.9269C29.708 31.0724 31.9106 31.5367 34.5821 31.5367C34.1973 30.4739 34.9878 29.8893 34.9922 29.691C35.1379 29.6877 35.2795 29.5033 35.469 29.4158C36.1418 29.1053 36.7376 29.2125 37.4873 29.2125C39.1991 29.2125 41.4823 28.7824 41.4889 31.1288C41.491 31.8586 40.7439 32.6989 40.1192 32.6989L41.9648 36.3219C41.9707 36.059 45.9347 31.5315 46.5174 30.7231C46.7667 30.3771 47.2027 29.9694 47.4336 29.6227L49.2628 27.4188C49.841 26.8528 50.4926 25.6219 51.2272 25.3158C52.3157 24.8622 53.5118 25.5008 53.7037 26.4631C53.89 27.3974 53.791 29.317 53.791 30.4431L53.7913 33.4854C53.7943 33.9733 53.659 34.1297 53.6543 34.3395C53.5445 34.342 52.732 34.9316 52.5742 35.0368C52.2529 35.2511 51.7392 35.5885 52.1802 36.0529C52.4101 36.295 53.2338 36.3342 53.7389 36.2356C54.3538 36.1156 54.3379 35.8397 54.3379 35.0915H55.5L55.4997 35.0914ZM30.8905 46.1313C30.7052 46.6683 30.8109 46.6994 30.4955 47.1719C30.258 47.5277 30.0789 47.6439 29.7968 47.9087C29.3015 48.3738 28.4032 48.5022 27.5461 48.4162C26.2936 48.2905 24.8323 46.6986 25.2481 45.0007C25.6077 43.5325 26.7832 42.5137 28.6284 42.7538C29.8703 42.9154 31.4338 44.5575 30.8905 46.1314V46.1313ZM24.0045 44.989L21.6621 45.0034V43.8413H24.3281L24.0045 44.989V44.989ZM21.6621 41.5171H23.9863V42.6109H21.6621V41.5171ZM41.6913 45.0034H37.453V39.7398H54.3378V45.0034H54.1327C54.0269 44.7112 52.63 41.9287 52.492 41.7565C52.1352 41.3112 51.1747 41.4488 50.373 41.4488H45.4852C44.6786 41.4488 43.6902 41.3095 43.3321 41.7565C43.1941 41.9287 41.7971 44.7112 41.6913 45.0034H41.6913ZM36.2226 32.7671V45.0034H32.1211C32.1211 44.2492 31.5858 43.4098 31.2348 42.9845C30.7977 42.4548 30.2593 42.0238 29.566 41.748C28.8154 41.4496 27.9636 41.4332 27.1053 41.5941C26.7345 41.6636 26.3981 41.8488 26.082 42.0063C25.8007 42.1465 25.3998 42.5447 25.2169 42.6109C25.2169 41.6923 25.4237 40.5211 24.6877 40.3373C24.2251 40.2218 22.6003 40.2866 21.9356 40.2866C21.942 40.0024 22.3574 39.7149 22.5694 39.5875C22.8923 39.3933 23.1912 39.3542 23.6206 39.2715C24.393 39.1227 25.145 38.9793 25.9004 38.817C27.0339 38.5734 27.1958 38.7859 27.666 37.8481C27.9772 37.2274 28.2668 36.6467 28.5782 36.026C28.8711 35.4419 29.1749 34.8344 29.4782 34.2259C29.7959 33.5886 29.9826 32.9178 30.7652 32.7785C31.7381 32.6053 35.0096 32.7671 36.2227 32.7671H36.2226ZM37.453 36.0484L38.3319 38.5809L37.453 38.5777V36.0484ZM37.6684 32.7638L38.8202 32.7672L41.6913 38.5778H39.5721L37.6684 32.7638H37.6684ZM35.8124 30.5797C36.0854 30.5737 35.8422 30.4485 36.2528 30.439C36.4411 30.4347 36.6468 30.443 36.8378 30.443C37.6126 30.443 38.3873 30.443 39.1621 30.443C39.353 30.443 39.5588 30.4347 39.7471 30.439C40.1577 30.4486 39.9144 30.5737 40.1875 30.5797C40.1942 30.8832 40.456 30.8002 40.2498 31.2214C40.1408 31.4441 40.0609 31.5381 39.7121 31.5399H36.2878C35.9391 31.5381 35.8591 31.4441 35.7501 31.2214C35.5438 30.8002 35.8056 30.8832 35.8124 30.5797V30.5797ZM44.6991 38.5777H43.0585C42.9172 38.2955 42.5705 37.6869 42.5117 37.4156C42.6815 37.3541 46.642 32.4134 47.1937 31.8096C47.9882 30.9402 48.7429 29.9067 49.5352 28.99C49.927 28.5367 50.2849 28.003 50.6801 27.5714C50.9523 27.2742 51.5642 26.3116 52.0432 26.3464C52.3543 26.3689 52.5864 26.6974 52.5653 27.0932C52.5468 27.4383 52.2688 27.7196 52.109 27.9407C51.7589 28.425 51.3778 28.9632 51.0564 29.4516C50.0987 30.9069 48.8369 32.5523 47.8852 34.005C47.3444 34.8303 44.8115 38.2674 44.6992 38.5778L44.6991 38.5777Z" fill="#219653"></path><path fill-rule="evenodd" clip-rule="evenodd" d="M31.9417 35.1045L33.8984 35.0917V37.416H30.8223L31.9418 35.1046L31.9417 35.1045ZM31.5742 33.8954C31.3604 34.0311 31.2908 33.7407 30.9023 34.5223L29.5686 37.1876C29.2093 37.9082 28.8467 38.5816 30.1727 38.5781C31.0613 38.5757 31.9501 38.578 32.8387 38.578C33.6007 38.578 34.8943 38.7945 35.0645 38.172C35.2056 37.6563 35.1287 36.2572 35.1287 35.5702C35.1287 34.5578 35.2676 33.8607 34.2086 33.8586C33.8023 33.8578 31.7613 33.7766 31.574 33.8955L31.5742 33.8954Z" fill="#219653"></path><path fill-rule="evenodd" clip-rule="evenodd" d="M47.502 45.1408C47.782 45.1345 47.95 44.8699 48.3188 45.1784C48.6696 45.4717 48.3254 45.8902 48.3223 46.0295C47.9941 46.0368 47.9183 46.3281 47.5312 45.9661C47.1255 45.5867 47.4972 45.3513 47.5019 45.1409L47.502 45.1408ZM46.6133 44.3205C46.6092 44.5062 45.4909 45.614 46.6814 46.8158C46.9708 47.1081 47.3244 47.3311 47.9121 47.3308C48.7778 47.3305 48.9878 46.8546 49.211 46.8497C49.2148 46.6797 50.3195 45.6089 49.1685 44.3286C48.8949 44.0243 48.4925 43.8408 47.9121 43.8408C46.9887 43.8408 46.841 44.3153 46.6133 44.3204L46.6133 44.3205Z" fill="#219653"></path><path fill-rule="evenodd" clip-rule="evenodd" d="M28.4981 45.1407C28.5028 45.3512 28.8746 45.5866 28.4689 45.966C28.0818 46.328 28.0059 46.0367 27.6779 46.0293C27.6747 45.89 27.3305 45.4716 27.6813 45.1782C28.0503 44.8698 28.2181 45.1344 28.4982 45.1407L28.4981 45.1407ZM26.7891 46.8497C27.0108 46.8546 27.2308 47.3305 28.0527 47.3309C29.0936 47.3315 29.8346 46.5004 29.8691 45.6177C29.8923 45.0196 29.3894 44.44 29.3867 44.3205C29.1589 44.3153 29.0007 43.837 28.1227 43.8408C27.5131 43.8434 27.1216 44.0062 26.8316 44.3287C25.6803 45.6093 26.7853 46.6797 26.7891 46.8498V46.8497Z" fill="#219653"></path><path fill-rule="evenodd" clip-rule="evenodd" d="M32.7365 40.9027H35.129V39.7405H32.7365V40.9027Z" fill="#219653"></path></svg>